<svg width="38" height="44" viewBox="0 0 38 44" fill="none" xmlns="http://www.w3.org/2000/svg">
<path d="M29.0635 12.8908V12.899L28.9329 12.7683L28.8757 12.7173L28.7369 12.5336L28.7288 12.5071L28.4757 12.2703L28.241 12.0724L27.9552 11.8172L27.9062 11.7478H27.8899L27.8818 11.7234L27.8328 11.6438L28.1675 11.8009C28.4675 12.1499 28.741 12.2683 29.0063 12.5581L29.0471 12.6806H29.0635L29.0798 12.8745L29.0635 12.8908ZM28.8675 13.746L28.7696 13.7215L28.7859 13.6766L28.9165 13.6317L28.9247 13.648L28.8675 13.746ZM22.0997 12.7602L22.0486 12.6397L22.2874 12.5499L22.3181 12.7173L22.0997 12.7602ZM20.4914 12.8826L20.4179 12.9867L20.0607 13.2235L19.5301 13.4316C19.2219 13.4827 19.0096 13.6398 18.73 13.7296L18.3218 13.8419L17.8667 14.095L17.7606 14.1542C17.4687 14.2154 17.2054 14.3378 16.987 14.4868L16.4809 14.7052C16.0747 14.9787 15.6849 15.2828 15.4032 15.6992L15.2991 15.8114L14.9563 15.6992L14.8644 15.5522L14.8338 15.4808L14.7256 15.3502L14.7113 15.2971H14.695L14.6134 15.1767L14.5399 15.0379L14.4991 14.9318L14.4338 14.8113L14.4093 14.7052H14.393L14.3603 14.6175L14.3521 14.5562H14.3358L14.3113 14.4174L14.2868 14.2766H14.2705L14.2623 14.1542L14.2542 13.746L14.2705 13.6153L14.2542 13.45V13.1439H14.2623L14.2868 13.0398V12.7255H14.2705V12.5152H14.2868L14.2623 12.3316H14.2542L14.2297 12.203H14.2133V12.0275L14.2705 11.9846L14.4644 11.8866L14.4991 11.8356L14.5481 11.7662V11.6091H14.5726V11.5295H14.5889L14.595 11.3723H14.6052L14.595 11.1907L14.5399 10.9212L14.4256 10.7804L14.2542 10.7192V10.5804H14.2623L14.2705 10.4845H14.2868L14.3032 10.3702H14.3195L14.5154 10.0314L14.5481 9.95382L14.5889 9.90076L14.6603 9.7681L14.7113 9.71503L14.7256 9.62931H14.744L14.7195 9.50685L14.695 9.47215L14.646 9.3946L14.6052 9.30684H14.6134V9.24561H14.6215C14.6052 9.01906 14.6603 8.81904 14.6215 8.60066L14.6379 8.59249L14.6297 8.54759H14.6379L14.6215 8.31288H14.6052L14.5889 8.18226H14.5726L14.5399 8.0251L14.5317 7.95571H14.5154L14.4991 7.82304H14.4828L14.4746 7.63324C14.4256 7.44139 14.4583 7.15361 14.4501 6.91685L14.4644 6.62908H14.4746L14.4991 6.55152V6.25354H14.5154L14.5399 6.08006H14.5481V5.93923L14.5807 5.9229L14.646 5.97596C14.7542 6.23925 14.8644 6.5005 15.0134 6.74133L15.0767 6.95972H15.0869L15.1257 7.10054H15.142L15.1767 7.16993L15.1828 7.20667L15.1991 7.32709L15.2073 7.33525H15.1991V7.58833H15.1828L15.1604 7.78223L15.1767 7.79039H15.1604L15.1767 7.79855H15.1604V7.85979H15.1767V7.88427H15.1604V8.05775H15.1522L15.142 8.24349H15.1257L15.142 8.5231H15.1257V8.67822H15.1114L15.1032 9.00069H15.095V9.23744H15.1114L15.1604 9.28847L15.3298 9.13131V9.09866H15.3379V8.90476L15.3645 8.60882V8.53126H15.3726L15.3645 8.29655V8.16389H15.3726L15.3787 7.99653H15.3951L15.4216 7.84142V7.65773H15.4298L15.4379 7.41485H15.4461L15.4379 7.40464H15.4461L15.4685 6.95155H15.4767L15.5032 6.7944V6.725H15.5175L15.542 6.60254H15.5502L15.5747 6.47192H15.5828L15.6073 6.2719H15.6257V5.99229H15.6073V5.86983H15.6257L15.6175 5.86167H15.6257L15.64 5.73921H15.6563L15.6726 5.59838H15.689L15.7135 5.48613H15.7216L15.7461 5.39224L15.7869 5.35551L15.9339 5.5392L15.9584 5.62696L16.0074 5.70451L16.04 5.76574L16.0808 5.89841H16.089L16.1298 5.97596L16.1543 6.06372L16.1788 6.12495L16.2033 6.28007H16.2115L16.2441 6.35967L16.2686 6.39233L16.3013 6.47192L16.3421 6.60254H16.3584L16.3747 6.70051H16.3911L16.4298 6.80256L16.5135 6.94339L16.5462 7.03931L16.5543 7.11687H16.5707L16.587 7.28423H16.6033L16.6197 7.53527C16.6339 7.8006 16.6482 8.10674 16.8299 8.31288L16.9789 8.47004C17.1075 8.61699 17.2381 8.75781 17.483 8.81088L17.8259 9.03743L18.0626 9.24561L18.1198 9.35786H18.1361L18.1688 9.41909C18.3075 9.67217 18.379 9.92117 18.5443 10.1436L18.6259 10.2294C19.0913 11.1315 18.9035 10.6845 19.5138 11.3029L19.6036 11.4356L19.7587 11.7397H19.7668L19.8077 11.8621L19.8403 11.9846H19.8566L19.8975 12.1418H19.9138L19.9464 12.2111L20.0118 12.3316L20.0362 12.3846L20.0444 12.4112L20.4914 12.6275L20.5342 12.803L20.4914 12.8826ZM14.148 11.7478L14.1072 11.6784L14.0827 11.3723L14.0991 11.2417H14.1072L14.1337 11.1376L14.197 11.0315L14.2705 10.9376L14.3032 10.9825L14.344 11.0315L14.197 11.3111L14.2623 11.4009L14.3358 11.4682L14.3766 11.4968L14.3685 11.5988H14.3521L14.2787 11.705L14.148 11.7478ZM2.18588 38.2866L2.49611 38.0785C2.7145 37.9458 2.95329 37.8315 3.17167 37.6927L3.3023 37.7825L3.31046 37.8417L3.32679 38.0254L3.36148 38.2785H3.36761V38.5397H3.36148L3.34312 38.8622L3.36148 38.9418H3.36761L3.40026 39.0806L3.40843 39.1928H3.42475L3.43292 39.6133L3.46557 39.9623L3.49823 40.2296L3.50639 40.2419H3.49823L3.51456 40.2664H3.49823L3.50639 40.2827H3.49823L3.4819 40.4154L3.44108 40.4582L3.38394 40.4501L3.26148 40.2664L3.24515 40.2296L3.12269 40.0031L3.02676 39.8908L2.95329 39.7357H2.94308L2.86961 39.6133L2.83083 39.5765C2.76552 39.4398 2.56959 39.4275 2.38794 39.4398C2.16139 39.4643 1.98995 39.55 1.77769 39.6031L1.50828 39.7439L1.10008 39.9439L0.98579 39.9174L0.969462 39.848H0.977627L1.00416 39.6908L1.04294 39.6031L1.07559 39.55V39.4806L1.12662 39.4275L1.18172 39.2724H1.19193L1.21438 39.1928C1.70013 38.5111 1.52461 39.0051 1.95729 38.4785L2.18588 38.2866ZM24.6101 11.756L24.6366 11.7397L24.7489 11.6519H25.0836V11.705L24.9795 11.7927L24.6101 11.8458V11.756ZM37.5845 19.5974C37.3825 19.4137 37.1927 19.2137 37.0396 19.0035L36.9314 18.6647L36.809 18.5667L36.762 18.481L36.7212 18.3075L36.4028 17.8789C36.2089 17.7401 36.1089 17.5054 35.8824 17.3993L35.613 17.1809L35.5558 17.0952L35.5783 17.0523L35.6273 16.9707V16.8421L35.2864 16.5707L35.1129 16.3951L34.6823 16.04C34.4782 15.942 34.2822 15.8298 34.0373 15.8298C33.8169 15.7339 33.5557 15.7073 33.3516 15.5685L32.9209 15.3665L32.5046 15.0991L32.3331 14.9583L32.3086 14.8358L32.7658 14.9399L33.0434 14.9236L33.0597 14.8113L33.0026 14.7317L32.6433 14.6358L32.2678 14.5828L31.9515 14.3378L32.0249 14.2848L32.5556 14.3827L32.7495 14.4174C32.9291 14.4603 33.1087 14.5481 33.3046 14.5236L33.6046 14.4338L33.5638 14.3562C33.1556 14.3215 32.8148 14.1297 32.4229 14.0786L32.0392 13.9276L32.2209 13.8317C32.4556 13.8072 32.6597 13.8847 32.8719 13.8847C33.2638 13.9276 33.6046 14.0582 33.9475 14.2072L34.3721 14.4093L34.5027 14.3378V14.1991L34.3965 14.1113L34.0373 13.8419C33.8251 13.8847 33.721 13.6684 33.5006 13.7092C33.1658 13.6684 32.8393 13.5623 32.4903 13.597L32.0821 13.5357L32.0249 13.4582L32.0821 13.4051L32.4148 13.3806C32.5944 13.352 32.774 13.352 32.9617 13.3357C33.2393 13.2929 33.5638 13.3092 33.8414 13.3623L33.8904 13.3276V13.2398C33.5169 13.0745 33.0924 13.1704 32.6842 13.1337L32.1943 13.1622L32.1454 13.101L32.5046 12.899C32.7168 12.7785 32.9944 12.7602 33.1903 12.603C33.3863 12.5152 33.6128 12.5071 33.8251 12.4908L34.2414 12.1928L34.2741 12.1336L34.3823 11.9315L34.47 11.7846L34.4945 11.6274H34.5027L34.5108 11.5131L34.519 11.409L34.5435 11.1294L34.5517 10.8498L34.5762 10.8416L34.5517 10.658L34.5762 10.5539V10.2049L34.5598 10.1885C34.5517 10.013 34.5598 9.75177 34.5517 9.52522L34.5925 9.41909L34.5762 9.23744L34.5925 8.91293L34.6088 8.68638L34.6251 8.67822C34.6251 8.45983 34.6333 8.25982 34.6415 8.04959L34.6251 7.95571C34.568 7.65364 34.6149 6.82909 34.5517 6.48212L34.519 6.28823C34.5353 6.09638 34.4863 5.93922 34.5027 5.74737L34.47 5.66982L34.4863 5.47796L34.47 5.4698L34.4537 5.11263L34.4292 5.04324L34.3965 4.98201V4.77995L34.3823 4.77179L34.3557 4.51667L34.2986 4.39625L34.2822 4.22073L34.2578 4.03908L34.2414 3.81253V3.3676L34.2169 3.35944L34.2333 3.34106L34.2169 3.3329L34.2333 3.21044H34.2251L34.2169 2.92266L34.2006 2.91246L34.1863 2.6451C34.0802 2.08587 34.0496 1.52868 33.8659 0.987823L33.7945 0.761272C33.7047 0.559216 33.6945 0.255112 33.5475 0.0877533L33.3863 -7.62939e-06L32.9515 0.0979538L32.9046 0.193882L32.8393 0.263275L32.774 0.375526L32.7087 0.453087L32.6025 0.638817L32.4556 0.934757L32.3168 1.2307L32.2352 1.36948L32.1454 1.5348L32.0902 1.60624L32.0392 1.68379C31.9596 1.89401 31.7861 2.0328 31.6739 2.21649L31.5984 2.34915L31.4371 2.59203C30.8759 3.64721 30.3513 4.70648 29.8064 5.75758L29.7492 5.86167L29.7166 5.9678C29.388 7.41893 28.841 8.36187 28.1675 9.67421L28.1491 9.75177L28.0756 9.87219L28.1165 9.98648L28.1491 10.4763C28.2716 10.6661 28.4594 10.8335 28.5981 11.007L28.7696 11.2335C28.8492 11.5172 29.1227 11.756 29.0961 12.0724V12.1662L28.892 12.0642L28.6226 11.854C28.4675 11.6703 28.241 11.5213 28.0022 11.4254C27.9062 11.3396 27.8246 11.1458 27.6368 11.2335L27.5634 11.3723L27.4899 11.4254L27.3756 11.5744C27.594 11.8009 27.9062 11.9581 28.141 12.1662L28.4594 12.4459L28.7696 12.7949L29.039 12.9785L29.0635 13.0643L29.088 13.1867L29.0635 13.248L28.9982 13.301L28.8349 13.2133L28.5083 12.952L28.2899 12.752C28.1103 12.603 27.8899 12.5152 27.7021 12.3683L27.4062 12.4295L27.6021 12.6193C27.7838 12.7785 28.0205 12.8561 28.2063 13.0051L28.2634 13.1173L28.1757 13.101C27.7981 13.0643 27.4572 12.9275 27.0735 12.8826C26.8858 12.8908 26.747 12.7602 26.551 12.7867C26.3245 12.6642 26.0367 12.7336 25.8102 12.6193L25.7755 12.5785L25.6632 12.5152C25.4101 12.5581 25.1652 12.5499 24.906 12.5683L24.7325 12.5336L24.4407 12.401L24.455 12.203C24.4876 11.9662 24.7978 12.1132 24.9203 11.9581C25.1754 11.9499 25.3448 11.7478 25.5979 11.7478L25.6632 11.6172L25.2795 11.5744L25.2958 11.5376L25.3693 11.4682L25.7755 11.3111L25.7367 11.2335L25.5652 11.26L25.2632 11.3825C25.0448 11.3723 24.855 11.4172 24.6366 11.4254L24.4876 11.3294L24.3264 11.5499C24.2713 11.6825 24.4162 11.758 24.2937 12.0805L24.2447 12.454L23.9978 12.5152C23.7386 12.5683 23.4773 12.5499 23.2242 12.6112L22.8018 12.6724L22.7263 12.401L22.7181 12.2458L22.7446 12.0724L22.7589 12.0642L22.7446 11.6968L22.7589 11.6438L22.7446 11.5825L22.7589 11.4254L22.8018 11.3478L22.8181 11.209L22.8324 11.0437L22.8487 10.9212L22.8242 10.8498L22.7834 10.6661L22.7365 10.5539L22.7263 10.3273L22.3181 10.0559L22.0589 9.85586C21.8772 9.50685 21.9058 9.28642 21.9935 8.91293L22.0262 8.83537L22.0833 8.72311C22.2078 8.39248 22.3323 8.07 22.4181 7.72916L22.4405 7.58017L22.5405 7.12503H22.5487L22.5569 7.03931L22.5875 6.86583C22.7467 6.3413 22.963 5.8535 23.1365 5.33918L23.1834 5.22489L23.1998 5.13712C23.659 3.84518 24.0325 3.48801 24.7019 2.43487L24.9938 2.0777L25.1897 1.89402L25.2795 1.97974C25.3877 2.3614 25.451 2.75326 25.5244 3.13901L25.5081 3.62885L25.4918 3.63701L25.5408 3.74314C25.5897 4.1248 25.6367 4.50442 25.6551 4.88609L25.6632 5.19019C25.7163 5.43919 25.7367 5.52491 25.7755 5.79228L25.8102 5.88616V6.14128L25.8265 6.14944C25.8102 6.376 25.8591 6.55152 25.8428 6.77807L25.8591 6.89848L25.8979 7.01278V7.32709L25.8673 7.47404L25.8591 7.69242L25.8428 7.76182L25.8265 7.9802L25.8102 7.99653L25.802 8.20675L25.8102 8.42513L25.8265 8.4782L25.8591 8.55576L25.8755 8.81904L25.8979 8.8966L25.9326 8.97416L25.9489 9.12315L25.9796 9.21091L25.9979 9.58645H25.9898L25.9714 9.75993L25.8265 10.1089C25.6714 10.309 25.4428 10.5008 25.1407 10.4926L24.7182 10.6947L24.506 10.9029L24.4876 11.0233L24.5284 11.0845L24.5366 11.2172L24.6284 11.2703C24.806 11.2172 24.9938 11.1907 25.1754 11.1294L25.4428 11.0764L25.7367 11.0233L25.3203 10.8927L25.1407 10.9029L25.1244 10.8498L25.5326 10.6314C25.7122 10.5171 25.8836 10.3967 26.0367 10.2498L26.1204 10.1008C26.2755 9.94158 26.2245 9.58645 26.2184 9.37827V9.22928L26.1939 9.10682L26.1592 8.97416V8.32104L26.1449 8.31288L26.102 8.17205V7.6414L26.1286 7.63324V7.44139L26.1449 7.11687L26.1286 7.02094L26.0877 6.89032V6.31477L26.102 6.3066L26.0877 6.22701C26.1306 5.74738 25.9979 5.29224 25.9796 4.82485L25.9632 4.69423C25.8571 4.384 25.9612 4.284 25.8428 4.03908L25.8265 3.82886L25.7857 3.7064C25.8102 3.51659 25.7612 3.35943 25.7755 3.15942L25.753 3.00226C25.6897 2.20832 25.5591 2.25119 25.4591 1.68379L25.4183 1.57154L25.0672 1.56338L24.8978 1.75319L24.6284 2.00831L24.6019 2.04097L24.5876 2.13893L24.5366 2.22466L24.4243 2.37364L24.2019 2.73082L24.0325 2.94103C23.7161 3.22269 23.6937 3.56353 23.3794 3.94315L23.363 4.03908L23.3141 4.15133C23.1467 4.71056 22.8508 5.18815 22.7263 5.71268L22.6364 5.89841L22.6222 5.99229L22.5711 6.11475L22.5324 6.16578C22.3548 6.80869 22.1548 6.96992 22.0833 7.71079L22.0589 7.89448L22.0262 7.95571C22.0017 8.47004 21.4874 9.15172 21.6915 9.62931L21.7323 9.73544L21.7813 9.82932L21.8874 10.013C22.0099 10.2212 22.2793 10.2396 22.467 10.3886L22.6364 10.5294L22.4915 10.8151L22.2446 10.711C21.9935 10.6661 21.8221 10.4845 21.618 10.3783L21.1527 10.2212L20.9751 10.3008L21.1874 10.4845C21.3833 10.5008 21.569 10.5702 21.6915 10.7029L21.52 10.8682L21.3976 11.0233L21.8548 11.0519C22.067 11.1131 22.3364 11.0682 22.5058 11.2417L22.467 11.3723L21.9527 11.4172L21.7098 11.505L21.6751 11.5662L21.9752 11.5499L22.4262 11.5662L22.4487 11.7478L22.3446 11.8621C22.1405 11.907 21.9282 11.9315 21.7323 11.9846L21.6751 12.0968L21.7894 12.1336L22.263 11.9928L22.4324 12.0356V12.2111L22.2711 12.3846L21.9037 12.5683L21.4486 12.752L21.1139 12.9439L20.9261 12.9602L20.9404 12.7683L20.9567 12.6642L20.9322 12.5499L20.9016 12.454L20.6649 12.3316L20.2485 12.254L20.2322 12.1744L20.1995 12.054L20.0526 11.6519L20.0281 11.6091L19.9546 11.4682C19.8811 11.209 19.6689 11.06 19.4974 10.8763L19.1872 10.6314C18.6606 9.95586 18.6463 9.62727 18.2096 9.00885L17.8177 8.65168C17.5075 8.53943 17.2054 8.39044 17.0115 8.13736L16.9952 8.0251L16.9789 7.91081L16.938 7.79855L16.9299 7.53527L16.887 7.38832V7.36179L16.9034 7.1781L16.8727 7.09238L16.838 7.02094L16.8074 6.88216L16.7646 6.82909L16.7176 6.65561L16.6768 6.60254L16.6258 6.47192L16.538 6.33313L16.4952 6.19435L16.489 6.08006L16.4401 5.99229L16.3013 5.62696L16.1543 5.37184L16.1135 5.25142L16.0808 5.13712L16.04 5.05957L15.9747 4.87588L15.9339 4.80853L15.7563 4.76363L15.64 4.87588C15.4277 5.18611 15.3849 6.29231 15.3073 6.56784L15.2257 6.60254L15.1175 6.41273C14.9746 6.09842 14.8726 5.85555 14.7603 5.5392L14.5807 5.30244L14.4501 5.33102L14.4093 5.44327L14.3766 5.61063L14.3521 5.72288L14.3195 5.9229L14.2868 6.04536L14.2623 6.45355L14.246 6.46376V6.65561L14.2133 6.82909V7.24749L14.2297 7.25565L14.2133 7.30872V7.65773L14.2297 7.66793L14.246 7.93734C14.3031 8.1292 14.3562 8.31084 14.4093 8.50473L14.3848 8.68638C14.4093 8.91293 14.3603 9.10682 14.3766 9.33337L14.393 9.47215H14.3991V9.73544C13.9215 10.5804 14.0684 10.3416 13.9439 11.0519L13.9378 11.3213L13.9113 11.3396L13.9378 11.4764C13.9419 11.754 14.0052 12.0846 14.0337 12.3846L14.0684 12.5255C14.0684 12.7255 14.0501 12.8377 14.0582 13.0479L14.0337 13.0561L14.0174 13.1867C13.9419 13.5949 13.9133 14.0113 14.0684 14.4093L14.1337 14.6971H14.1399L14.1889 14.8807L14.3358 15.2277L14.4256 15.4114L14.5644 15.6645L14.3521 15.9176L14.1725 16.1176L14.0419 16.0829L14.0337 16.1094L13.9848 16.0829L13.8133 16.2298L13.7725 16.0829L13.7909 15.9012L13.6684 15.8298L13.5215 16.0482L13.4296 16.2747L13.3806 16.3706C13.0439 16.6299 12.9296 17.1462 12.6642 17.5054L12.5744 17.6258L12.5418 17.7238C12.4357 17.9932 12.2907 18.2361 12.1683 18.4973L12.0377 18.7076L11.9805 18.8668L11.9213 18.9443C11.4723 19.6015 11.1968 20.3587 11.0825 21.1669L11.0417 21.2894L11.0253 21.5425H11.0172L11.007 21.6302L10.9927 21.716L10.96 21.7956L10.9437 22.0221L10.9029 22.0997L10.6498 22.4568L10.4212 22.5895L10.111 22.7283C9.71096 22.7977 9.33746 22.9548 8.97008 23.0855L8.82313 23.1977C8.56189 23.2079 8.43331 23.4079 8.25982 23.5386V23.5651L8.21084 23.6447L8.19655 23.7733L8.13736 23.8876L8.12308 24.159V24.3243L8.13736 24.4386L8.16186 24.5672L8.15369 24.804L8.07205 24.9795L7.91898 25.353L7.86183 25.5877L7.84551 25.6244L7.71488 25.8959L7.60671 25.8755L7.33118 25.8836V25.8755L7.09443 25.7632L6.77604 25.8326L6.79236 25.9551L6.90666 26.0163L7.35363 26.1469L7.68019 26.3041L7.73121 26.4L7.77203 26.5572V26.8449L7.75366 26.9245L7.69855 27.0021C7.45364 27.0347 7.22505 27.1062 6.99646 27.1592C6.70256 27.2368 6.45764 27.3858 6.17191 27.4797L5.71473 27.6899L5.70861 27.8042L5.75759 27.9266L6.17191 27.8042L6.68011 27.5613C7.00462 27.4715 7.29853 27.2899 7.64957 27.2531L7.69855 27.3327L7.72305 27.4389L7.69855 27.5695L7.6659 27.647L7.64957 27.743L7.60671 27.8124L7.5761 27.943L7.55977 28.0756L7.52711 28.1348L7.48425 28.2655L7.15974 28.492L7.03728 28.6675L7.46997 28.6226L7.64957 28.7981L7.6659 28.99L7.69855 29.0778L7.73121 29.1818L7.77203 29.2431L7.78836 29.4247L7.81897 29.5043L7.84551 29.6268L7.87612 29.7043L7.91082 29.8105L7.96796 29.8982L7.92715 30.0207C7.76387 30.0982 7.58426 30.1758 7.38833 30.1942L7.08626 30.3064L6.9638 30.4126L6.93115 30.5513L6.9638 30.7779L6.9883 30.8554L6.9638 30.8636L6.79236 31.1004L6.65358 31.3983L6.54132 31.5963L6.31069 31.9127L6.04945 32.0515L5.68411 32.3984L5.56165 32.5658L5.53716 32.6352L5.50451 32.7148L5.45348 32.8005L5.13713 33.0719L5.02284 33.2822C4.9412 33.5332 4.6575 33.6291 4.53505 33.8475C4.47586 34.0394 4.23094 34.0557 4.1493 34.2231C3.93908 34.3537 3.80846 34.5455 3.62069 34.6925L3.31862 34.9292L3.02676 35.068L3.14718 35.2782L2.96962 35.5232C2.77368 35.6436 2.6349 35.7926 2.51244 35.9681L2.37365 36.1416L2.38794 36.2191L2.45325 36.4375L2.42264 36.4906L2.1267 36.8294L2.03893 36.9518L1.90015 37.1784L1.87566 37.3008L1.91648 37.3702L1.90015 37.5192L1.72871 37.7621L1.63074 37.9213L1.54094 38.0499L1.53277 38.1723L1.49195 38.3295L1.44297 38.4867L1.13478 38.8438L1.06947 38.9418L1.03477 39.0275L0.791897 39.3765L0.700053 39.5867L0.685766 39.6378L0.661275 39.7684L0.62658 39.8561L0.595964 39.9786L0.569431 40.197L0.561267 40.5093L0.538817 40.5623L0.569431 40.6766L0.365334 40.9297C0.232671 41.3726 0.18981 41.2746 0.0653103 41.5828L0.0959257 41.6359C0.234712 41.8828 0.134704 42.5319 0.00816331 42.787L0 42.9523L0.0816389 43.0054L0.155115 42.8747L0.18777 42.7176L0.204096 42.5768L0.244917 42.5074L0.277572 42.4135L0.310227 42.2727L0.2939 41.9583L0.326556 41.8624L0.365334 41.7481L0.416358 41.644L0.522489 41.5053V41.3828L0.512284 41.2705L0.538817 41.1909L0.822513 40.8419L1.00416 40.6501L1.0511 40.5705V40.5378L0.912315 40.3011L0.961298 40.2664C1.17356 40.197 1.36949 40.0562 1.60625 40.0398C1.83484 39.9337 2.08792 39.699 2.36549 39.848L2.77981 40.1786L2.86961 40.3113L2.90431 40.4052L2.93492 40.4929L3.23698 40.7807L3.53089 40.7378L3.67784 40.5011L3.71049 40.3807L3.74315 40.2664L3.78397 40.1705V39.5867L3.75743 39.4275L3.74315 39.3071L3.72682 39.0887H3.71049V37.9213L3.67784 37.8152L3.63702 37.7192L3.62069 37.6335L3.49007 37.3968L3.00023 37.4927L2.91859 37.5641L2.49611 37.7907C2.32263 37.8764 2.20017 38.0601 2.00628 38.0703L2.07975 37.8601L2.14506 37.6845L2.17772 37.5539L2.19201 37.3886C2.37365 37.2764 2.50428 37.1008 2.69205 36.9886L2.72266 36.909L2.54509 36.8906L2.42264 36.9171L2.46958 36.8396L2.77981 36.4906C3.01656 36.3763 3.10636 36.1661 3.28597 36.011L3.35128 35.766L3.14718 35.7497V35.7048C3.88193 35.068 3.80438 34.6598 4.89221 33.9618L5.33307 33.5169C5.51267 33.5087 5.53716 33.325 5.67595 33.2618C5.92699 32.9577 6.36172 32.8801 6.6944 32.6352C6.99646 32.4515 7.33934 32.3658 7.69855 32.2964L8.23737 32.1555L8.50474 32.1025L8.52107 32.2964L8.64557 32.3372C8.89661 32.478 9.19051 32.6005 9.50686 32.5739C9.68851 32.5046 9.98037 32.4699 10.1192 32.6168C10.3232 32.6699 10.4294 32.8434 10.6498 32.8719L10.9927 32.9862L11.3274 33.2454L11.5948 33.4801C11.7417 33.6475 11.9866 33.7067 12.1173 33.9006L12.4377 34.1088L12.7214 34.2659C12.9255 34.3618 13.0643 34.5374 13.2847 34.6149L13.4561 34.5782L13.35 34.3537L12.9418 34.1435L12.4377 33.8291C12.2234 33.7067 12.0111 33.5597 11.8499 33.4026L11.4642 33.0719L11.0417 32.7658C10.8294 32.7311 10.6416 32.6086 10.4375 32.5474C10.2763 32.4964 10.1457 32.3821 9.96404 32.3474L9.55788 32.329L9.19867 32.1719C9.0109 32.2168 9.00274 32.0066 8.83946 31.9821C8.63536 31.9637 8.41494 31.9372 8.20268 31.9637C7.98429 31.9372 7.83734 32.1474 7.62304 32.0515C7.44547 32.0596 7.29036 32.1474 7.11892 32.1555C6.89033 32.2433 6.68011 32.329 6.48418 32.4699L6.16578 32.6352L5.8229 32.7148L5.83923 32.6005C5.96169 32.3739 6.23109 32.3045 6.40866 32.1106L6.48418 32.1025L6.70256 31.8514L6.73522 31.7453L6.77604 31.6861L6.92299 31.5106L7.14341 31.1881L7.43731 30.9085L7.51079 30.733L7.62304 30.5677L7.6659 30.4126C7.81897 30.2717 8.05777 30.2799 8.24554 30.2105L8.28432 30.1411L8.16186 29.9493L8.23737 29.7125C8.05981 29.0512 7.73325 28.7492 7.81897 27.9083L7.86183 27.8287L7.87612 27.7083L7.91082 27.6123L7.92715 27.5001L7.96796 27.4021V27.2123L8.00062 27.0633L8.03328 26.7919L8.07205 26.7061V26.5041L8.03328 26.4L8.00062 26.2775L8.01491 26.1714L8.0496 26.0061L8.04144 25.904H8.0496L8.05777 25.7979C8.29044 25.3918 8.1639 25.4448 8.31085 25.153L8.51495 24.8999L8.4578 24.7244L8.40677 24.5162L8.38432 24.061L8.58638 23.5753L8.87212 23.4977L9.23745 23.7039C9.47624 23.7488 9.59054 23.9753 9.75382 24.0896L9.79464 24.159L9.91505 24.359L9.9722 24.506L9.94975 24.5427V24.804L10.0232 24.8836L10.2334 24.8142V24.4549L10.1845 24.3243L10.1457 24.21L10.0722 24.0712C9.94159 23.9141 9.8028 23.7488 9.6232 23.6345L9.50686 23.5386L9.18234 23.3222L9.50074 23.1202L9.6232 23.1651L9.63748 23.2508C9.82729 23.4528 10.0069 23.112 10.2334 23.1732L10.2906 23.2875V23.3834L10.462 23.3916L11.007 23.4263C11.2376 23.5569 10.8784 23.5998 10.9192 23.7569L11.3846 23.9059L11.3601 23.9835L11.3111 24.061L11.3274 24.1406L11.6029 24.2386L11.6948 24.159L11.4805 23.9508L11.5233 23.7937L11.5376 23.7835L11.5233 23.7243L11.2376 23.3304L11.156 23.2181L10.8866 23.1202L10.6906 22.963L10.7233 22.7201L11.156 22.3711L11.2764 22.4323L11.3988 22.3874L11.4152 22.3364L11.4335 22.0384L11.4642 21.9874L11.4805 21.8405L11.5233 21.6813L11.5376 21.5527L11.5723 21.4996L11.5948 21.3588L11.6295 21.2731L11.6029 21.1322L11.4805 21.22L11.4499 21.2976L11.4335 21.42L11.3988 21.5159L11.3274 21.8303L11.2866 21.9425L11.2764 21.865L11.3111 21.7609V21.5323L11.3274 21.5241L11.3417 21.1669L11.3764 21.0629C11.4805 20.6791 11.4784 20.2424 11.7193 19.9199L11.8642 19.6403L12.0275 19.2484C12.3622 18.6729 12.6928 17.8422 13.0296 17.3034L13.1541 17.0687L13.2602 16.9625L13.252 17.1809L13.35 17.2585L13.4459 17.0687L13.5684 16.7727L13.6174 16.6748L13.6766 16.589L13.799 16.5462L13.9194 16.6829L14.1072 16.5972L14.4093 16.2053L14.4419 16.1523L14.4746 16.0747L14.7113 15.84L15.1767 15.9012L15.1991 15.942L15.242 16.1094L15.4951 15.9951C15.6257 15.7951 15.8114 15.6379 15.9584 15.4543C16.2196 15.2277 16.44 14.9848 16.7564 14.8113L16.838 14.8277L17.134 14.7828C17.3381 14.593 17.6483 14.5236 17.8749 14.3746C18.0381 14.2256 18.2912 14.1725 18.4953 14.0684C18.6749 13.9807 18.8872 13.9807 19.0566 13.8949C19.3668 13.8153 19.6036 13.6235 19.8893 13.5276C20.1261 13.4827 20.2975 13.3174 20.5485 13.3276C20.7792 13.2847 20.9914 13.1704 21.2261 13.1439C21.4486 13.1173 21.6507 13.0051 21.8711 13.0398L22.1793 12.9602C22.3752 12.8663 22.5977 12.899 22.8181 12.8745C22.9957 12.8132 23.21 12.8214 23.3957 12.7867C23.6406 12.6989 23.861 12.8561 24.106 12.8296C24.806 12.752 25.5081 12.8745 26.1673 12.9969C26.4367 13.0745 26.747 13.0398 27.0164 13.1255L27.2205 13.1541L27.4572 13.1867L27.5797 13.352L27.5552 13.4419L27.7981 13.6684L27.5062 13.8153L27.4981 13.9031C27.6675 14.0174 27.9144 13.946 28.1165 13.9643L28.4838 13.9888L28.8512 13.9725L28.9737 14.146L29.1206 14.1725L29.1696 14.095L29.1859 13.9643L29.2186 13.7623C29.3696 13.3031 29.2962 12.6724 29.3819 12.254V11.8621C28.3369 9.63747 28.0103 10.8723 29.1125 8.58433L29.1696 8.43534C29.1819 7.99245 29.6207 7.54139 29.6247 7.1781L29.6513 7.01278L29.7084 6.90869L29.7329 6.75153H29.7492L29.7554 6.6801C30.4473 4.58606 31.8882 2.46344 32.9372 0.559216L33.1658 0.255112L33.4822 0.289806L33.5169 0.7327L33.5332 0.740864L33.574 0.889854L33.621 1.00415L33.6557 1.09191L33.6944 1.22253L33.7128 1.37969L33.7434 1.56338L33.7679 1.79809L33.8006 1.92871V2.14709L33.8169 2.16343L33.8414 2.4859H33.8516L33.8659 2.77367C33.921 2.89001 33.9618 3.18799 34.0128 3.26351V3.50026L34.0292 3.50842V4.2493L34.0475 4.26563L34.0618 4.37992L34.0945 4.46769L34.121 4.59014L34.1516 4.80853V5.1208L34.1863 5.20856L34.2088 5.39224L34.2414 5.53103L34.2578 5.71268L34.2986 5.76574L34.2741 5.81677L34.2986 6.01066L34.3067 6.52499L34.3312 6.53315L34.3476 7.01278L34.3721 7.20667H34.3823L34.3639 7.23116C34.3557 7.64344 34.4639 8.07613 34.4292 8.33737L34.421 8.69659L34.3965 8.70475V8.90476L34.3639 9.04559V9.28847L34.3476 9.29663L34.3312 9.58645L34.3476 9.85586V10.3539L34.3067 10.4681L34.3312 10.5967V10.8253L34.3067 10.8416V11.1294L34.2986 11.3213L34.2578 11.4254L34.2414 11.5988L34.2088 11.7234L34.1516 11.907C33.9965 12.1499 33.6781 12.2377 33.3699 12.2458C33.1903 12.2377 33.0679 12.3765 32.9046 12.401C32.7168 12.4908 32.4964 12.5071 32.2862 12.5581C32.0739 12.6397 31.8943 12.803 31.778 12.9867L31.7392 13.0826C31.7861 14.1868 31.2473 14.6583 31.2412 15.2461L31.329 15.3257L31.5433 15.1685L31.582 15.0991L31.6167 14.993L31.9086 15.0705C32.1454 15.1236 32.325 15.2542 32.4964 15.3951C32.8393 15.5849 33.1556 15.84 33.5475 15.9339L33.6944 15.9951C33.8822 16.0216 34.0292 16.1278 34.2169 16.1604C34.4619 16.3278 34.7864 16.3951 34.9823 16.6237L34.9599 16.736L34.6823 16.7809L34.5435 16.885L34.9027 17.0952L35.4742 17.4177C35.7905 17.5218 36.013 17.7565 36.1906 17.983L36.2314 18.0973L36.1661 18.1341C36.0028 18.0728 35.8232 17.9932 35.6354 18.0116L35.4742 18.1238L35.7007 18.2463C36.0191 18.3157 36.3212 18.4729 36.5253 18.681L36.8437 18.9953L37.1355 19.3015L37.356 19.5444L37.5519 19.7627H37.6499L37.5845 19.5974Z" fill="#F9F9F9"/>
</svg>
